<?xml version="1.0"?>
<svg xmlns="http://www.w3.org/2000/svg" width="36" height="36" viewBox="0 0 36 36" fill="none">
<path d="M12 24V16.5M18 24V12M24 24V21M27 6H9C8.20435 6 7.44129 6.31607 6.87868 6.87868C6.31607 7.44129 6 8.20435 6 9V27C6 27.7956 6.31607 28.5587 6.87868 29.1213C7.44129 29.6839 8.20435 30 9 30H27C27.7956 30 28.5587 29.6839 29.1213 29.1213C29.6839 28.5587 30 27.7956 30 27V9C30 8.20435 29.6839 7.44129 29.1213 6.87868C28.5587 6.31607 27.7956 6 27 6Z" stroke="#A5D04B" stroke-width="3" stroke-linecap="round" stroke-linejoin="round"/>
</svg>
