<?xml version="1.0"?>
<svg xmlns="http://www.w3.org/2000/svg" width="30" height="30" viewBox="0 0 30 30" fill="none">
<path d="M28.7241 24.7134L22.9013 2.97934C22.5413 1.66871 21.36 0.721836 19.9584 0.721836C19.6781 0.721836 19.4062 0.759336 19.1484 0.830586L19.17 0.825898L16.455 1.5534C16.2394 1.61434 16.0528 1.68934 15.8756 1.78121L15.8925 1.77371C15.3356 1.11934 14.5125 0.704961 13.5928 0.702148H10.7813C10.0688 0.704961 9.41531 0.955273 8.90063 1.37059L8.90625 1.3659C8.39719 0.955273 7.74375 0.704961 7.03219 0.702148H4.21875C2.53688 0.704023 1.17375 2.06715 1.17188 3.74902V26.249C1.17375 27.9309 2.53688 29.294 4.21875 29.2959H7.03125C7.74375 29.2931 8.39719 29.0437 8.91188 28.6284L8.90625 28.6331C9.41531 29.0437 10.0688 29.2931 10.7803 29.2968H13.5919C15.2738 29.295 16.6369 27.9318 16.6388 26.25V14.0128L20.1234 27.0187C20.4816 28.3293 21.6619 29.2762 23.0634 29.2762C23.3447 29.2762 23.6166 29.2378 23.8753 29.1665L23.8538 29.1712L26.5706 28.4446C27.8813 28.0828 28.8272 26.9015 28.8272 25.5C28.8272 25.2206 28.7897 24.9496 28.7194 24.6918L28.7241 24.7134ZM17.8369 9.43215L21.9113 8.33996L25.1869 20.5668L21.1134 21.6581L17.8369 9.43215ZM17.0616 3.81746L19.7756 3.0909C19.8281 3.07684 19.8891 3.06934 19.9519 3.06934C20.2763 3.06934 20.5509 3.2859 20.6372 3.58215L20.6381 3.58684L21.3056 6.07684L17.2313 7.16902L16.6388 4.95934V4.16434C16.7269 3.99652 16.8769 3.87184 17.0569 3.81746H17.0616ZM10.7813 3.04684H13.5919C13.9781 3.05246 14.2894 3.36371 14.295 3.74902V6.32715L10.0781 6.32809V3.74996C10.0838 3.36371 10.395 3.05246 10.7803 3.04684H10.7813ZM7.73438 21.3281H3.51563V8.67184L7.73438 8.6709V21.3281ZM10.0781 8.67184L14.295 8.6709V21.3281H10.0781V8.67184ZM4.21875 3.04684H7.03125C7.4175 3.05246 7.72875 3.36371 7.73438 3.74902V6.32715L3.51563 6.32809V3.74996C3.52125 3.36371 3.83344 3.05246 4.21875 3.04684ZM7.03125 26.9531H4.21875C3.8325 26.9475 3.52125 26.6362 3.51563 26.2509V23.6718H7.73438V26.25C7.72875 26.6362 7.41656 26.9475 7.03125 26.9531ZM13.5919 26.9531H10.7813C10.395 26.9475 10.0838 26.6362 10.0781 26.2509V23.6718H14.295V26.25C14.2894 26.6362 13.9772 26.9475 13.5919 26.9531ZM25.9622 26.1825L23.2472 26.909C23.1938 26.9231 23.1328 26.9315 23.07 26.9315C22.9397 26.9315 22.8178 26.8968 22.7128 26.8359L22.7166 26.8378C22.5563 26.745 22.4372 26.595 22.3884 26.4159L22.3875 26.4112L21.7209 23.9221L25.7944 22.8309L26.4619 25.3218C26.4759 25.3743 26.4834 25.4343 26.4834 25.4962C26.4834 25.8215 26.2659 26.0953 25.9688 26.1806L25.9641 26.1815L25.9622 26.1825Z" fill="#FF52CF"/>
</svg>
