<?xml version="1.0"?>
<svg xmlns="http://www.w3.org/2000/svg" width="36" height="36" viewBox="0 0 36 36" fill="none">
<path d="M15 31.5H9.3C7.61985 31.5 6.77976 31.5 6.13803 31.173C5.57354 30.8854 5.11459 30.4265 4.82698 29.862C4.5 29.2203 4.5 28.3801 4.5 26.7V12.3C4.5 10.6198 4.5 9.77976 4.82698 9.13803C5.11459 8.57354 5.57354 8.11459 6.13803 7.82698C6.77976 7.5 7.61985 7.5 9.3 7.5H26.7C28.3801 7.5 29.2203 7.5 29.862 7.82698C30.4265 8.11459 30.8854 8.57354 31.173 9.13803C31.5 9.77976 31.5 10.6198 31.5 12.3V15M10.5 4.5V7.5M25.5 4.5V7.5M4.5 13.5H31.5M20.25 19.5002L10.5 19.5M15 25.5001L10.5 25.5M21 31.5L24.0375 30.8925C24.3022 30.8395 24.4347 30.813 24.5582 30.7646C24.6678 30.7217 24.7721 30.6659 24.8685 30.5985C24.9774 30.5226 25.0728 30.4272 25.2639 30.2361L31.5 24C32.3284 23.1716 32.3284 21.8284 31.5 21C30.6716 20.1716 29.3284 20.1716 28.5 21L22.2639 27.2361C22.0728 27.4272 21.9774 27.5226 21.9015 27.6315C21.8341 27.7279 21.7784 27.8322 21.7355 27.9418C21.687 28.0653 21.6604 28.1978 21.6075 28.4625L21 31.5Z" stroke="#B05DF1" stroke-width="3" stroke-linecap="round" stroke-linejoin="round"/>
</svg>
