<?xml version="1.0"?>
<svg xmlns="http://www.w3.org/2000/svg" width="27" height="30" viewBox="0 0 27 30" fill="none">
<path fill-rule="evenodd" clip-rule="evenodd" d="M0.548974 4.48231C1.30012e-07 5.26446 0 7.58936 0 12.2392V14.5291C0 22.7276 6.16412 26.7063 10.0316 28.3958C11.0807 28.854 11.6052 29.0832 13.0874 29.0832C14.5697 29.0832 15.0942 28.854 16.1432 28.3958C20.0107 26.7063 26.1749 22.7276 26.1749 14.5291V12.2392C26.1749 7.58936 26.1749 5.26446 25.6259 4.48231C25.077 3.70016 22.8909 2.95188 18.5189 1.45531L17.6859 1.17019C15.4068 0.390063 14.2673 0 13.0874 0C11.9075 0 10.768 0.390063 8.48897 1.17019L7.65601 1.45531C3.28396 2.95188 1.09793 3.70016 0.548974 4.48231ZM17.5364 12.3596C17.9375 11.9103 17.8985 11.2209 17.4492 10.8197C16.9998 10.4186 16.3104 10.4576 15.9092 10.9069L11.5294 15.8124L10.2656 14.3969C9.8644 13.9476 9.17497 13.9086 8.72566 14.3096C8.27636 14.7108 8.23733 15.4003 8.6385 15.8496L10.7158 18.1763C10.9228 18.408 11.2187 18.5405 11.5294 18.5405C11.84 18.5405 12.136 18.408 12.3429 18.1763L17.5364 12.3596Z" fill="#A5D04B"/>
</svg>
