<?xml version="1.0"?>
<svg xmlns="http://www.w3.org/2000/svg" width="181" height="38" viewBox="0 0 181 38" fill="none">
<path d="M30.5718 23L28.6518 19.664H27.6078V23H26.2398V14.66H29.1198C29.7598 14.66 30.2998 14.772 30.7398 14.996C31.1878 15.22 31.5198 15.52 31.7358 15.896C31.9598 16.272 32.0718 16.692 32.0718 17.156C32.0718 17.7 31.9118 18.196 31.5918 18.644C31.2798 19.084 30.7958 19.384 30.1398 19.544L32.2038 23H30.5718ZM27.6078 18.572H29.1198C29.6318 18.572 30.0158 18.444 30.2718 18.188C30.5358 17.932 30.6678 17.588 30.6678 17.156C30.6678 16.724 30.5398 16.388 30.2838 16.148C30.0278 15.9 29.6398 15.776 29.1198 15.776H27.6078V18.572ZM39.8819 19.532C39.8819 19.78 39.8659 20.004 39.8339 20.204H34.7819C34.8219 20.732 35.0179 21.156 35.3699 21.476C35.7219 21.796 36.1539 21.956 36.6659 21.956C37.4019 21.956 37.9219 21.648 38.2259 21.032H39.7019C39.5019 21.64 39.1379 22.14 38.6099 22.532C38.0899 22.916 37.4419 23.108 36.6659 23.108C36.0339 23.108 35.4659 22.968 34.9619 22.688C34.4659 22.4 34.0739 22 33.7859 21.488C33.5059 20.968 33.3659 20.368 33.3659 19.688C33.3659 19.008 33.5019 18.412 33.7739 17.9C34.0539 17.38 34.4419 16.98 34.9379 16.7C35.4419 16.42 36.0179 16.28 36.6659 16.28C37.2899 16.28 37.8459 16.416 38.3339 16.688C38.8219 16.96 39.2019 17.344 39.4739 17.84C39.7459 18.328 39.8819 18.892 39.8819 19.532ZM38.4539 19.1C38.4459 18.596 38.2659 18.192 37.9139 17.888C37.5619 17.584 37.1259 17.432 36.6059 17.432C36.1339 17.432 35.7299 17.584 35.3939 17.888C35.0579 18.184 34.8579 18.588 34.7939 19.1H38.4539ZM40.7721 19.664C40.7721 19 40.9081 18.412 41.1801 17.9C41.4601 17.388 41.8361 16.992 42.3081 16.712C42.7881 16.424 43.3161 16.28 43.8921 16.28C44.4121 16.28 44.8641 16.384 45.2481 16.592C45.6401 16.792 45.9521 17.044 46.1841 17.348V16.388H47.5641V23H46.1841V22.016C45.9521 22.328 45.6361 22.588 45.2361 22.796C44.8361 23.004 44.3801 23.108 43.8681 23.108C43.3001 23.108 42.7801 22.964 42.3081 22.676C41.8361 22.38 41.4601 21.972 41.1801 21.452C40.9081 20.924 40.7721 20.328 40.7721 19.664ZM46.1841 19.688C46.1841 19.232 46.0881 18.836 45.8961 18.5C45.7121 18.164 45.4681 17.908 45.1641 17.732C44.8601 17.556 44.5321 17.468 44.1801 17.468C43.8281 17.468 43.5001 17.556 43.1961 17.732C42.8921 17.9 42.6441 18.152 42.4521 18.488C42.2681 18.816 42.1761 19.208 42.1761 19.664C42.1761 20.12 42.2681 20.52 42.4521 20.864C42.6441 21.208 42.8921 21.472 43.1961 21.656C43.5081 21.832 43.8361 21.92 44.1801 21.92C44.5321 21.92 44.8601 21.832 45.1641 21.656C45.4681 21.48 45.7121 21.224 45.8961 20.888C46.0881 20.544 46.1841 20.144 46.1841 19.688ZM50.7289 14.12V23H49.3609V14.12H50.7289ZM58.3902 23.084C57.8302 23.084 57.3262 22.988 56.8782 22.796C56.4302 22.596 56.0782 22.316 55.8222 21.956C55.5662 21.596 55.4382 21.176 55.4382 20.696H56.9022C56.9342 21.056 57.0742 21.352 57.3222 21.584C57.5782 21.816 57.9342 21.932 58.3902 21.932C58.8622 21.932 59.2302 21.82 59.4942 21.596C59.7582 21.364 59.8902 21.068 59.8902 20.708C59.8902 20.428 59.8062 20.2 59.6382 20.024C59.4782 19.848 59.2742 19.712 59.0262 19.616C58.7862 19.52 58.4502 19.416 58.0182 19.304C57.4742 19.16 57.0302 19.016 56.6862 18.872C56.3502 18.72 56.0622 18.488 55.8222 18.176C55.5822 17.864 55.4622 17.448 55.4622 16.928C55.4622 16.448 55.5822 16.028 55.8222 15.668C56.0622 15.308 56.3982 15.032 56.8302 14.84C57.2622 14.648 57.7622 14.552 58.3302 14.552C59.1382 14.552 59.7982 14.756 60.3102 15.164C60.8302 15.564 61.1182 16.116 61.1742 16.82H59.6622C59.6382 16.516 59.4942 16.256 59.2302 16.04C58.9662 15.824 58.6182 15.716 58.1862 15.716C57.7942 15.716 57.4742 15.816 57.2262 16.016C56.9782 16.216 56.8542 16.504 56.8542 16.88C56.8542 17.136 56.9302 17.348 57.0822 17.516C57.2422 17.676 57.4422 17.804 57.6822 17.9C57.9222 17.996 58.2502 18.1 58.6662 18.212C59.2182 18.364 59.6662 18.516 60.0102 18.668C60.3622 18.82 60.6582 19.056 60.8982 19.376C61.1462 19.688 61.2702 20.108 61.2702 20.636C61.2702 21.06 61.1542 21.46 60.9222 21.836C60.6982 22.212 60.3662 22.516 59.9262 22.748C59.4942 22.972 58.9822 23.084 58.3902 23.084ZM68.8724 16.388V23H67.5044V22.22C67.2884 22.492 67.0044 22.708 66.6524 22.868C66.3084 23.02 65.9404 23.096 65.5484 23.096C65.0284 23.096 64.5604 22.988 64.1444 22.772C63.7364 22.556 63.4124 22.236 63.1724 21.812C62.9404 21.388 62.8244 20.876 62.8244 20.276V16.388H64.1804V20.072C64.1804 20.664 64.3284 21.12 64.6244 21.44C64.9204 21.752 65.3244 21.908 65.8364 21.908C66.3484 21.908 66.7524 21.752 67.0484 21.44C67.3524 21.12 67.5044 20.664 67.5044 20.072V16.388H68.8724ZM74.0133 16.28C74.5333 16.28 74.9973 16.388 75.4053 16.604C75.8213 16.82 76.1453 17.14 76.3773 17.564C76.6093 17.988 76.7253 18.5 76.7253 19.1V23H75.3693V19.304C75.3693 18.712 75.2213 18.26 74.9253 17.948C74.6293 17.628 74.2253 17.468 73.7133 17.468C73.2013 17.468 72.7933 17.628 72.4893 17.948C72.1933 18.26 72.0453 18.712 72.0453 19.304V23H70.6773V16.388H72.0453V17.144C72.2693 16.872 72.5533 16.66 72.8973 16.508C73.2493 16.356 73.6213 16.28 74.0133 16.28ZM81.8063 16.28C82.3263 16.28 82.7903 16.388 83.1983 16.604C83.6143 16.82 83.9383 17.14 84.1703 17.564C84.4023 17.988 84.5183 18.5 84.5183 19.1V23H83.1623V19.304C83.1623 18.712 83.0143 18.26 82.7183 17.948C82.4223 17.628 82.0183 17.468 81.5063 17.468C80.9943 17.468 80.5863 17.628 80.2823 17.948C79.9863 18.26 79.8383 18.712 79.8383 19.304V23H78.4703V16.388H79.8383V17.144C80.0623 16.872 80.3463 16.66 80.6903 16.508C81.0423 16.356 81.4143 16.28 81.8063 16.28ZM92.2153 16.388L88.1593 26.108H86.7433L88.0873 22.892L85.4833 16.388H87.0073L88.8673 21.428L90.7993 16.388H92.2153ZM95.6477 23.108C95.1277 23.108 94.6597 23.016 94.2437 22.832C93.8357 22.64 93.5117 22.384 93.2717 22.064C93.0317 21.736 92.9037 21.372 92.8877 20.972H94.3037C94.3277 21.252 94.4597 21.488 94.6997 21.68C94.9477 21.864 95.2557 21.956 95.6237 21.956C96.0077 21.956 96.3037 21.884 96.5117 21.74C96.7277 21.588 96.8357 21.396 96.8357 21.164C96.8357 20.916 96.7157 20.732 96.4757 20.612C96.2437 20.492 95.8717 20.36 95.3597 20.216C94.8637 20.08 94.4597 19.948 94.1477 19.82C93.8357 19.692 93.5637 19.496 93.3317 19.232C93.1077 18.968 92.9957 18.62 92.9957 18.188C92.9957 17.836 93.0997 17.516 93.3077 17.228C93.5157 16.932 93.8117 16.7 94.1957 16.532C94.5877 16.364 95.0357 16.28 95.5397 16.28C96.2917 16.28 96.8957 16.472 97.3517 16.856C97.8157 17.232 98.0637 17.748 98.0957 18.404H96.7277C96.7037 18.108 96.5837 17.872 96.3677 17.696C96.1517 17.52 95.8597 17.432 95.4917 17.432C95.1317 17.432 94.8557 17.5 94.6637 17.636C94.4717 17.772 94.3757 17.952 94.3757 18.176C94.3757 18.352 94.4397 18.5 94.5677 18.62C94.6957 18.74 94.8517 18.836 95.0357 18.908C95.2197 18.972 95.4917 19.056 95.8517 19.16C96.3317 19.288 96.7237 19.42 97.0277 19.556C97.3397 19.684 97.6077 19.876 97.8317 20.132C98.0557 20.388 98.1717 20.728 98.1797 21.152C98.1797 21.528 98.0757 21.864 97.8677 22.16C97.6597 22.456 97.3637 22.688 96.9797 22.856C96.6037 23.024 96.1597 23.108 95.6477 23.108ZM100.354 15.512C100.106 15.512 99.8978 15.428 99.7298 15.26C99.5618 15.092 99.4778 14.884 99.4778 14.636C99.4778 14.388 99.5618 14.18 99.7298 14.012C99.8978 13.844 100.106 13.76 100.354 13.76C100.594 13.76 100.798 13.844 100.966 14.012C101.134 14.18 101.218 14.388 101.218 14.636C101.218 14.884 101.134 15.092 100.966 15.26C100.798 15.428 100.594 15.512 100.354 15.512ZM101.026 16.388V23H99.6578V16.388H101.026ZM102.366 19.664C102.366 19 102.502 18.412 102.774 17.9C103.054 17.388 103.43 16.992 103.902 16.712C104.382 16.424 104.914 16.28 105.498 16.28C105.93 16.28 106.354 16.376 106.77 16.568C107.194 16.752 107.53 17 107.778 17.312V14.12H109.158V23H107.778V22.004C107.554 22.324 107.242 22.588 106.842 22.796C106.45 23.004 105.998 23.108 105.486 23.108C104.91 23.108 104.382 22.964 103.902 22.676C103.43 22.38 103.054 21.972 102.774 21.452C102.502 20.924 102.366 20.328 102.366 19.664ZM107.778 19.688C107.778 19.232 107.682 18.836 107.49 18.5C107.306 18.164 107.062 17.908 106.758 17.732C106.454 17.556 106.126 17.468 105.774 17.468C105.422 17.468 105.094 17.556 104.79 17.732C104.486 17.9 104.238 18.152 104.046 18.488C103.862 18.816 103.77 19.208 103.77 19.664C103.77 20.12 103.862 20.52 104.046 20.864C104.238 21.208 104.486 21.472 104.79 21.656C105.102 21.832 105.43 21.92 105.774 21.92C106.126 21.92 106.454 21.832 106.758 21.656C107.062 21.48 107.306 21.224 107.49 20.888C107.682 20.544 107.778 20.144 107.778 19.688ZM117.015 19.532C117.015 19.78 116.999 20.004 116.967 20.204H111.915C111.955 20.732 112.151 21.156 112.503 21.476C112.855 21.796 113.287 21.956 113.799 21.956C114.535 21.956 115.055 21.648 115.359 21.032H116.835C116.635 21.64 116.271 22.14 115.743 22.532C115.223 22.916 114.575 23.108 113.799 23.108C113.167 23.108 112.599 22.968 112.095 22.688C111.599 22.4 111.207 22 110.919 21.488C110.639 20.968 110.499 20.368 110.499 19.688C110.499 19.008 110.635 18.412 110.907 17.9C111.187 17.38 111.575 16.98 112.071 16.7C112.575 16.42 113.151 16.28 113.799 16.28C114.423 16.28 114.979 16.416 115.467 16.688C115.955 16.96 116.335 17.344 116.607 17.84C116.879 18.328 117.015 18.892 117.015 19.532ZM115.587 19.1C115.579 18.596 115.399 18.192 115.047 17.888C114.695 17.584 114.259 17.432 113.739 17.432C113.267 17.432 112.863 17.584 112.527 17.888C112.191 18.184 111.991 18.588 111.927 19.1H115.587ZM121.022 18.812C121.022 17.996 121.21 17.264 121.586 16.616C121.97 15.968 122.486 15.464 123.134 15.104C123.79 14.736 124.506 14.552 125.282 14.552C126.17 14.552 126.958 14.772 127.646 15.212C128.342 15.644 128.846 16.26 129.158 17.06H127.514C127.298 16.62 126.998 16.292 126.614 16.076C126.23 15.86 125.786 15.752 125.282 15.752C124.73 15.752 124.238 15.876 123.806 16.124C123.374 16.372 123.034 16.728 122.786 17.192C122.546 17.656 122.426 18.196 122.426 18.812C122.426 19.428 122.546 19.968 122.786 20.432C123.034 20.896 123.374 21.256 123.806 21.512C124.238 21.76 124.73 21.884 125.282 21.884C125.786 21.884 126.23 21.776 126.614 21.56C126.998 21.344 127.298 21.016 127.514 20.576H129.158C128.846 21.376 128.342 21.992 127.646 22.424C126.958 22.856 126.17 23.072 125.282 23.072C124.498 23.072 123.782 22.892 123.134 22.532C122.486 22.164 121.97 21.656 121.586 21.008C121.21 20.36 121.022 19.628 121.022 18.812ZM136.747 16.388V23H135.379V22.22C135.163 22.492 134.879 22.708 134.527 22.868C134.183 23.02 133.815 23.096 133.423 23.096C132.903 23.096 132.435 22.988 132.019 22.772C131.611 22.556 131.287 22.236 131.047 21.812C130.815 21.388 130.699 20.876 130.699 20.276V16.388H132.055V20.072C132.055 20.664 132.203 21.12 132.499 21.44C132.795 21.752 133.199 21.908 133.711 21.908C134.223 21.908 134.627 21.752 134.923 21.44C135.227 21.12 135.379 20.664 135.379 20.072V16.388H136.747ZM140.952 23.108C140.432 23.108 139.964 23.016 139.548 22.832C139.14 22.64 138.816 22.384 138.576 22.064C138.336 21.736 138.208 21.372 138.192 20.972H139.608C139.632 21.252 139.764 21.488 140.004 21.68C140.252 21.864 140.56 21.956 140.928 21.956C141.312 21.956 141.608 21.884 141.816 21.74C142.032 21.588 142.14 21.396 142.14 21.164C142.14 20.916 142.02 20.732 141.78 20.612C141.548 20.492 141.176 20.36 140.664 20.216C140.168 20.08 139.764 19.948 139.452 19.82C139.14 19.692 138.868 19.496 138.636 19.232C138.412 18.968 138.3 18.62 138.3 18.188C138.3 17.836 138.404 17.516 138.612 17.228C138.82 16.932 139.116 16.7 139.5 16.532C139.892 16.364 140.34 16.28 140.844 16.28C141.596 16.28 142.2 16.472 142.656 16.856C143.12 17.232 143.368 17.748 143.4 18.404H142.032C142.008 18.108 141.888 17.872 141.672 17.696C141.456 17.52 141.164 17.432 140.796 17.432C140.436 17.432 140.16 17.5 139.968 17.636C139.776 17.772 139.68 17.952 139.68 18.176C139.68 18.352 139.744 18.5 139.872 18.62C140 18.74 140.156 18.836 140.34 18.908C140.524 18.972 140.796 19.056 141.156 19.16C141.636 19.288 142.028 19.42 142.332 19.556C142.644 19.684 142.912 19.876 143.136 20.132C143.36 20.388 143.476 20.728 143.484 21.152C143.484 21.528 143.38 21.864 143.172 22.16C142.964 22.456 142.668 22.688 142.284 22.856C141.908 23.024 141.464 23.108 140.952 23.108ZM146.559 17.504V21.164C146.559 21.412 146.615 21.592 146.727 21.704C146.847 21.808 147.047 21.86 147.327 21.86H148.167V23H147.087C146.471 23 145.999 22.856 145.671 22.568C145.343 22.28 145.179 21.812 145.179 21.164V17.504H144.399V16.388H145.179V14.744H146.559V16.388H148.167V17.504H146.559ZM152.295 23.108C151.671 23.108 151.107 22.968 150.603 22.688C150.099 22.4 149.703 22 149.415 21.488C149.127 20.968 148.983 20.368 148.983 19.688C148.983 19.016 149.131 18.42 149.427 17.9C149.723 17.38 150.127 16.98 150.639 16.7C151.151 16.42 151.723 16.28 152.355 16.28C152.987 16.28 153.559 16.42 154.071 16.7C154.583 16.98 154.987 17.38 155.283 17.9C155.579 18.42 155.727 19.016 155.727 19.688C155.727 20.36 155.575 20.956 155.271 21.476C154.967 21.996 154.551 22.4 154.023 22.688C153.503 22.968 152.927 23.108 152.295 23.108ZM152.295 21.92C152.647 21.92 152.975 21.836 153.279 21.668C153.591 21.5 153.843 21.248 154.035 20.912C154.227 20.576 154.323 20.168 154.323 19.688C154.323 19.208 154.231 18.804 154.047 18.476C153.863 18.14 153.619 17.888 153.315 17.72C153.011 17.552 152.683 17.468 152.331 17.468C151.979 17.468 151.651 17.552 151.347 17.72C151.051 17.888 150.815 18.14 150.639 18.476C150.463 18.804 150.375 19.208 150.375 19.688C150.375 20.4 150.555 20.952 150.915 21.344C151.283 21.728 151.743 21.92 152.295 21.92ZM165.084 16.28C165.604 16.28 166.068 16.388 166.476 16.604C166.892 16.82 167.216 17.14 167.448 17.564C167.688 17.988 167.808 18.5 167.808 19.1V23H166.452V19.304C166.452 18.712 166.304 18.26 166.008 17.948C165.712 17.628 165.308 17.468 164.796 17.468C164.284 17.468 163.876 17.628 163.572 17.948C163.276 18.26 163.128 18.712 163.128 19.304V23H161.772V19.304C161.772 18.712 161.624 18.26 161.328 17.948C161.032 17.628 160.628 17.468 160.116 17.468C159.604 17.468 159.196 17.628 158.892 17.948C158.596 18.26 158.448 18.712 158.448 19.304V23H157.08V16.388H158.448V17.144C158.672 16.872 158.956 16.66 159.3 16.508C159.644 16.356 160.012 16.28 160.404 16.28C160.932 16.28 161.404 16.392 161.82 16.616C162.236 16.84 162.556 17.164 162.78 17.588C162.98 17.188 163.292 16.872 163.716 16.64C164.14 16.4 164.596 16.28 165.084 16.28ZM175.608 19.532C175.608 19.78 175.592 20.004 175.56 20.204H170.508C170.548 20.732 170.744 21.156 171.096 21.476C171.448 21.796 171.88 21.956 172.392 21.956C173.128 21.956 173.648 21.648 173.952 21.032H175.428C175.228 21.64 174.864 22.14 174.336 22.532C173.816 22.916 173.168 23.108 172.392 23.108C171.76 23.108 171.192 22.968 170.688 22.688C170.192 22.4 169.8 22 169.512 21.488C169.232 20.968 169.092 20.368 169.092 19.688C169.092 19.008 169.228 18.412 169.5 17.9C169.78 17.38 170.168 16.98 170.664 16.7C171.168 16.42 171.744 16.28 172.392 16.28C173.016 16.28 173.572 16.416 174.06 16.688C174.548 16.96 174.928 17.344 175.2 17.84C175.472 18.328 175.608 18.892 175.608 19.532ZM174.18 19.1C174.172 18.596 173.992 18.192 173.64 17.888C173.288 17.584 172.852 17.432 172.332 17.432C171.86 17.432 171.456 17.584 171.12 17.888C170.784 18.184 170.584 18.588 170.52 19.1H174.18ZM178.323 17.348C178.523 17.012 178.787 16.752 179.115 16.568C179.451 16.376 179.847 16.28 180.303 16.28V17.696H179.955C179.419 17.696 179.011 17.832 178.731 18.104C178.459 18.376 178.323 18.848 178.323 19.52V23H176.955V16.388H178.323V17.348Z" fill="black"/>
<path fill-rule="evenodd" clip-rule="evenodd" d="M3.23679 10.8706C2.875 11.3861 2.875 12.9182 2.875 15.9826V17.4917C2.875 22.8948 6.93734 25.5169 9.48612 26.6303C10.1775 26.9323 10.5232 27.0833 11.5 27.0833C12.4768 27.0833 12.8225 26.9323 13.5138 26.6303C16.0626 25.5169 20.125 22.8948 20.125 17.4917V15.9826C20.125 12.9182 20.125 11.3861 19.7632 10.8706C19.4015 10.3551 17.9608 9.862 15.0795 8.87572L14.5305 8.68782C13.0285 8.17369 12.2776 7.91663 11.5 7.91663C10.7224 7.91663 9.97146 8.17369 8.46948 8.68782L7.92054 8.87572C5.03922 9.862 3.59857 10.3551 3.23679 10.8706ZM14.432 16.062C14.6963 15.7659 14.6706 15.3115 14.3745 15.0472C14.0784 14.7828 13.6241 14.8085 13.3596 15.1046L10.4732 18.3374L9.64035 17.4046C9.37593 17.1085 8.92158 17.0828 8.62547 17.3471C8.32936 17.6115 8.30364 18.0659 8.56803 18.362L9.93705 19.8953C10.0734 20.0481 10.2684 20.1354 10.4732 20.1354C10.6779 20.1354 10.873 20.0481 11.0093 19.8953L14.432 16.062Z" fill="#A5D04B"/>
</svg>
