<?xml version="1.0"?>
<svg xmlns="http://www.w3.org/2000/svg" width="35" height="35" viewBox="0 0 35 35" fill="none">
<g clip-path="url(#clip0_654_5246)">
<path d="M28.0626 6.93726C30.1947 9.07518 30.9968 12.0312 30.4688 14.7831C31.2972 15.0164 32.0818 15.4583 32.7351 16.1073C34.7826 18.1402 34.7826 21.436 32.7351 23.4675L24.7916 31.3541L20.3845 26.9791L16.0416 31.3323L3.67489 18.9481C0.608011 15.5123 0.72322 10.236 4.02051 6.93726C7.32364 3.6356 12.6072 3.52476 16.043 6.60476C19.4686 3.52914 24.7624 3.63122 28.0626 6.93726ZM18.9028 18.1781C18.0045 19.0691 18.0045 20.5071 18.9028 21.3981L24.7916 27.2446L30.6803 21.3981C31.5786 20.5071 31.5786 19.0691 30.6803 18.1781C29.7703 17.2739 28.2857 17.2739 27.3728 18.181L24.7886 20.7389L22.7368 18.7031L22.2074 18.1781C21.2974 17.2739 19.8128 17.2739 18.9028 18.1781ZM6.08405 9.0008C3.91114 11.1737 3.80176 14.6518 5.80405 16.9502L16.0416 27.2037L18.3151 24.9258L16.848 23.4675C14.8005 21.436 14.8005 18.1402 16.848 16.1073C18.8955 14.0758 22.2147 14.0758 24.2622 16.1073L24.7916 16.6323L25.3209 16.1073C25.9407 15.4933 26.6772 15.0646 27.4574 14.821C28.0641 12.8275 27.5711 10.5743 25.9976 8.99789C23.8101 6.80747 20.2809 6.71851 17.9913 8.77476L16.0445 10.5218L14.0961 8.77622C11.7993 6.71705 8.27739 6.80747 6.08405 9.0008Z" fill="#FF0000"/>
</g>
<defs>
<clipPath id="clip0_654_5246">
<rect width="35" height="35" fill="white"/>
</clipPath>
</defs>
</svg>
