<?xml version="1.0"?>
<svg xmlns="http://www.w3.org/2000/svg" width="42" height="42" viewBox="0 0 42 42" fill="none">
<path d="M29.9594 0.0172119C26.365 0.0172119 23.0413 1.6805 20.8678 4.42704C18.6943 1.6805 15.3706 0.0172119 11.7762 0.0172119C5.3656 0.0172119 0.147461 5.28001 0.147461 11.7455C0.147461 14.0741 1.20462 17.0083 3.3866 20.7187C5.01885 23.4994 7.2854 26.7065 10.127 30.2548C14.9223 36.2512 19.7937 41.241 19.836 41.2922C20.1743 41.6419 20.6225 41.8125 21.0708 41.8125C21.5105 41.8125 21.9419 41.6505 22.2802 41.3178C22.4747 41.1302 27.1008 36.5583 31.8031 30.6984C38.2982 22.6208 41.5881 16.2406 41.5881 11.7455C41.5881 5.28001 36.37 0.0172119 29.9594 0.0172119ZM35.4228 19.4478C33.9174 22.1176 31.8031 25.1541 29.139 28.4722C25.9844 32.4043 22.7876 35.8162 21.0961 37.5562C19.3793 35.7309 16.0894 32.1314 12.8249 28.0542C4.81588 18.0404 3.61494 13.5367 3.61494 11.7455C3.61494 7.20771 7.27695 3.51437 11.7762 3.51437C15.0407 3.51437 17.9839 5.46766 19.2778 8.49569C19.5485 9.13542 20.1743 9.55337 20.8678 9.55337C21.5613 9.55337 22.1871 9.13542 22.4578 8.49569C23.7517 5.46766 26.6949 3.51437 29.9594 3.51437C34.4586 3.51437 38.1206 7.20771 38.1206 11.7455C38.1206 13.6817 37.2157 16.2747 35.4228 19.4478Z" fill="white"/>
<path d="M11.7765 5.56162C8.39363 5.56162 5.64502 8.33376 5.64502 11.7456C5.64502 12.2318 5.85645 13.6563 7.4295 16.6758C8.0638 17.8955 9.51845 17.5202 9.78063 17.3752C10.6264 16.9146 10.9308 15.8569 10.4741 15.004C9.30702 12.8459 9.12942 11.848 9.1125 11.6944C9.13788 10.2359 10.3219 9.05878 11.7765 9.05878C12.7322 9.05878 13.5103 8.27405 13.5103 7.3102C13.5103 6.34635 12.7322 5.56162 11.7765 5.56162Z" fill="white"/>
</svg>
