<?xml version="1.0"?>
<svg xmlns="http://www.w3.org/2000/svg" width="50" height="51" viewBox="0 0 50 51" fill="none">
<path d="M39.6953 38.3828C36.999 41.5464 33.3818 43.7479 29.3719 44.6659C25.362 45.5839 21.1693 45.1703 17.4062 43.4855C13.6431 41.8003 10.5068 38.9321 8.45518 35.2997C6.40359 31.6674 5.54422 27.4612 6.00256 23.2953C6.46055 19.1291 8.21247 15.2213 11.0025 12.1428C13.7925 9.06431 17.4743 6.97631 21.5104 6.18378M28.8099 6.19971C31.5202 6.73213 34.0867 7.85218 36.3359 9.48409C38.585 11.116 40.4642 13.2217 41.8463 15.6586C43.2285 18.0956 44.0814 20.807 44.3471 23.6094C44.6129 26.4117 44.2854 29.2396 43.3867 31.9016" stroke="white" stroke-width="3.1875" stroke-linecap="round"/>
<path d="M20.9971 24.4375V20.639C20.9971 18.3358 22.8624 16.4687 25.1637 16.4687C27.465 16.4687 29.3304 18.3358 29.3304 20.639V24.4375M19.9554 24.4375H30.3721C31.5262 24.4375 32.4554 25.3852 32.4554 26.5625V32.4062C32.4554 33.5835 31.5262 34.5312 30.3721 34.5312H19.9554C18.8012 34.5312 17.8721 33.5835 17.8721 32.4062V26.5625C17.8721 25.3852 18.8012 24.4375 19.9554 24.4375Z" stroke="white" stroke-width="3.1875"/>
</svg>
