<?xml version="1.0"?>
<svg xmlns="http://www.w3.org/2000/svg" width="186" height="60" viewBox="0 0 186 60" fill="none">
<path d="M113.338 4.05964e-07C105.483 0.000921055 97.7847 2.19737 91.1118 6.34143C84.439 10.4855 79.0573 16.4122 75.5741 23.4526C75.5248 23.5519 75.5015 23.6621 75.5065 23.7728C75.5116 23.8836 75.5447 23.9912 75.6029 24.0856C75.661 24.18 75.7423 24.258 75.8389 24.3123C75.9356 24.3665 76.0445 24.3953 76.1554 24.3958H150.526C150.637 24.3957 150.747 24.367 150.844 24.3125C150.941 24.2579 151.023 24.1794 151.081 24.0842C151.14 23.9891 151.173 23.8806 151.177 23.7692C151.182 23.6577 151.157 23.547 151.107 23.4475C147.623 16.4069 142.24 10.4804 135.566 6.33715C128.893 2.1939 121.193 -0.00108987 113.338 4.05964e-07Z" fill="#FFE636"/>
<path d="M9.15723 50.8584C4.45141 50.8584 0.719386 48.5437 0.0107093 44.7403C-0.00798932 44.6297 -0.00214925 44.5164 0.0278165 44.4084C0.0577822 44.3003 0.111141 44.2002 0.184111 44.1151C0.257082 44.0299 0.347879 43.9619 0.450072 43.9157C0.552265 43.8696 0.663354 43.8465 0.775468 43.8481H4.20669C4.37372 43.8501 4.5357 43.9057 4.66878 44.0066C4.80186 44.1076 4.89902 44.2486 4.94595 44.4089C5.53227 46.3259 7.3269 47.0499 9.26939 47.0499C11.3444 47.0499 12.772 46.229 12.772 44.7556C12.772 43.2822 11.8237 42.4664 9.57529 41.9005L6.00642 40.9522C2.28459 39.9988 0.469564 37.5771 0.469564 34.4212C0.469564 30.786 3.67136 28.3643 8.51483 28.3643C12.8077 28.3643 15.8973 30.5566 16.6366 33.9317C16.6585 34.0436 16.6552 34.1589 16.6271 34.2694C16.599 34.3798 16.5468 34.4827 16.4741 34.5705C16.4014 34.6583 16.3101 34.7288 16.2069 34.7771C16.1036 34.8253 15.9909 34.85 15.8769 34.8494H12.619C12.4614 34.8482 12.308 34.7987 12.1794 34.7075C12.0509 34.6164 11.9534 34.4879 11.9002 34.3396C11.6385 33.6633 11.1685 33.0878 10.558 32.6964C9.94757 32.305 9.22841 32.118 8.50463 32.1626C6.68961 32.1626 5.34873 32.9885 5.34873 34.3702C5.34873 35.7518 6.42959 36.4911 8.24461 36.9653L11.8798 37.9186C15.7749 38.9383 17.6308 41.1612 17.6308 44.4497C17.6308 48.6559 14.0007 50.8584 9.15723 50.8584Z" fill="#052C18"/>
<path d="M20.7386 28.8247H23.9506C24.1552 28.8247 24.3516 28.9056 24.4968 29.0499C24.642 29.1941 24.7242 29.3899 24.7256 29.5946V40.9793C24.7256 44.436 26.2551 46.5569 29.049 46.5569C32.108 46.5569 34.3258 44.0893 34.3258 39.4651V29.5691C34.3337 29.3689 34.4189 29.1795 34.5633 29.0408C34.7078 28.902 34.9004 28.8246 35.1008 28.8247H38.3128C38.5165 28.826 38.7116 28.9076 38.8557 29.0517C38.9998 29.1958 39.0813 29.3908 39.0826 29.5946V49.6771C39.0826 49.8818 39.0017 50.0781 38.8575 50.2233C38.7132 50.3685 38.5174 50.4507 38.3128 50.4521H35.1008C34.8953 50.4521 34.6981 50.3704 34.5528 50.2251C34.4075 50.0798 34.3258 49.8827 34.3258 49.6771C34.3278 49.5286 34.2868 49.3827 34.2077 49.257C34.1286 49.1313 34.0148 49.0311 33.8801 48.9686C33.7453 48.9061 33.5954 48.8839 33.4483 48.9047C33.3013 48.9255 33.1634 48.9883 33.0512 49.0857C31.6562 50.2937 29.8586 50.9341 28.014 50.8804C23.038 50.8804 19.9688 47.3115 19.9688 41.7542V29.5691C19.9766 29.3698 20.061 29.1812 20.2044 29.0425C20.3478 28.9039 20.5392 28.8259 20.7386 28.8247Z" fill="#052C18"/>
<path d="M44.1061 28.8311H47.313C47.5177 28.8311 47.714 28.9121 47.8592 29.0563C48.0044 29.2005 48.0866 29.3963 48.088 29.601V29.6571C48.0886 29.8068 48.1327 29.9531 48.2147 30.0783C48.2967 30.2035 48.4133 30.3022 48.5502 30.3626C48.6872 30.423 48.8387 30.4425 48.9865 30.4186C49.1343 30.3947 49.272 30.3285 49.383 30.2281C50.8668 28.9868 52.7512 28.3272 54.6853 28.3723C59.7021 28.3723 62.9447 31.9412 62.9447 37.4117V49.6479C62.9447 49.7496 62.9246 49.8504 62.8857 49.9444C62.8467 50.0385 62.7897 50.1239 62.7177 50.1959C62.6457 50.2678 62.5603 50.3249 62.4663 50.3638C62.3723 50.4028 62.2715 50.4228 62.1697 50.4228H58.9628C58.8611 50.4228 58.7603 50.4028 58.6663 50.3638C58.5723 50.3249 58.4868 50.2678 58.4149 50.1959C58.3429 50.1239 58.2858 50.0385 58.2469 49.9444C58.2079 49.8504 58.1879 49.7496 58.1879 49.6479V38.1918C58.1879 34.7708 56.4595 32.6957 53.6911 32.6957C50.5301 32.6957 48.1084 35.1633 48.1084 39.7927V49.6581C48.1084 49.8636 48.0267 50.0607 47.8814 50.206C47.736 50.3514 47.5389 50.433 47.3334 50.433H44.1265C43.921 50.433 43.7239 50.3514 43.5785 50.206C43.4332 50.0607 43.3516 49.8636 43.3516 49.6581V29.5755C43.3593 29.3788 43.4415 29.1924 43.5817 29.0541C43.7218 28.9159 43.9093 28.8362 44.1061 28.8311Z" fill="#052C18"/>
<path d="M67.6304 28.8297H70.8424C71.0462 28.8311 71.2412 28.9126 71.3853 29.0567C71.5294 29.2008 71.6109 29.3958 71.6123 29.5996V29.6557C71.613 29.8053 71.657 29.9516 71.739 30.0768C71.821 30.2021 71.9376 30.3008 72.0745 30.3612C72.2115 30.4216 72.363 30.441 72.5108 30.4172C72.6586 30.3933 72.7963 30.3271 72.9073 30.2267C74.3898 29 76.2655 28.35 78.1892 28.3964C83.206 28.3964 86.4486 31.9652 86.4486 37.4358V49.672C86.4486 49.8766 86.3677 50.073 86.2234 50.2181C86.0792 50.3633 85.8834 50.4456 85.6787 50.4469H82.4667C82.2612 50.4469 82.0641 50.3653 81.9188 50.2199C81.7734 50.0746 81.6918 49.8775 81.6918 49.672V38.1904C81.6918 34.7694 79.9634 32.6943 77.195 32.6943C74.034 32.6943 71.6123 35.1619 71.6123 39.7913V49.6567C71.6123 49.8613 71.5313 50.0577 71.3871 50.2028C71.2429 50.348 71.0471 50.4303 70.8424 50.4316H67.6304C67.4249 50.4316 67.2278 50.35 67.0824 50.2046C66.9371 50.0593 66.8555 49.8622 66.8555 49.6567V29.5741C66.8634 29.3739 66.9485 29.1846 67.093 29.0458C67.2375 28.907 67.4301 28.8296 67.6304 28.8297Z" fill="#052C18"/>
<path d="M92.0513 58.4008L96.0383 49.6061C96.0838 49.506 96.1073 49.3973 96.1073 49.2874C96.1073 49.1775 96.0838 49.0688 96.0383 48.9688L87.371 29.9212C87.317 29.8036 87.2935 29.6743 87.3027 29.5452C87.3119 29.4161 87.3535 29.2915 87.4236 29.1827C87.4938 29.074 87.5902 28.9847 87.7039 28.923C87.8177 28.8614 87.9452 28.8294 88.0746 28.8301H91.5976C91.7483 28.829 91.8959 28.8725 92.022 28.955C92.1481 29.0375 92.247 29.1555 92.3062 29.2941L98.0572 42.504C98.1163 42.6431 98.2149 42.7618 98.341 42.8452C98.467 42.9286 98.6148 42.9731 98.7659 42.9731C98.917 42.9731 99.0648 42.9286 99.1908 42.8452C99.3169 42.7618 99.4155 42.6431 99.4746 42.504L105.185 29.2941C105.245 29.1563 105.344 29.0391 105.47 28.9567C105.596 28.8743 105.743 28.8303 105.893 28.8301H109.462C109.592 28.8294 109.719 28.8614 109.833 28.923C109.947 28.9847 110.043 29.074 110.113 29.1827C110.183 29.2915 110.225 29.4161 110.234 29.5452C110.243 29.6743 110.22 29.8036 110.166 29.9212L96.9968 59.0177C96.9358 59.1531 96.8369 59.2681 96.712 59.3486C96.5872 59.4291 96.4417 59.4718 96.2932 59.4714H92.76C92.6333 59.4702 92.5088 59.4379 92.3975 59.3774C92.2861 59.3168 92.1913 59.2299 92.1214 59.1243C92.0515 59.0186 92.0085 58.8974 91.9963 58.7712C91.9841 58.6451 92.003 58.5179 92.0513 58.4008Z" fill="#052C18"/>
<path d="M120.17 50.8584C115.469 50.8584 111.737 48.5437 111.023 44.7403C111.006 44.6299 111.012 44.5169 111.042 44.4092C111.073 44.3016 111.126 44.2018 111.199 44.1169C111.272 44.032 111.362 43.9639 111.464 43.9175C111.566 43.8711 111.676 43.8474 111.788 43.8481H115.235C115.403 43.849 115.566 43.9041 115.7 44.0051C115.834 44.1061 115.932 44.2478 115.979 44.4089C116.565 46.3259 118.36 47.0499 120.303 47.0499C122.378 47.0499 123.805 46.229 123.805 44.7556C123.805 43.2822 122.852 42.4664 120.603 41.9005L117.06 40.9522C113.338 39.9988 111.523 37.5771 111.523 34.4212C111.523 30.786 114.72 28.3643 119.568 28.3643C123.861 28.3643 126.951 30.5566 127.69 33.9317C127.712 34.044 127.709 34.1598 127.68 34.2706C127.652 34.3815 127.599 34.4846 127.526 34.5725C127.453 34.6604 127.361 34.7308 127.257 34.7787C127.153 34.8266 127.04 34.8508 126.925 34.8494H123.637C123.479 34.8471 123.325 34.7972 123.196 34.7063C123.067 34.6153 122.968 34.4875 122.913 34.3396C122.653 33.6632 122.184 33.0874 121.574 32.6959C120.964 32.3044 120.246 32.1176 119.522 32.1626C117.707 32.1626 116.367 32.9885 116.367 34.3702C116.367 35.7518 117.447 36.4911 119.262 36.9653L122.898 37.9186C126.788 38.9383 128.649 41.1612 128.649 44.4497C128.649 48.6559 125.039 50.8584 120.17 50.8584Z" fill="#052C18"/>
<path d="M132.064 28.8301H135.271C135.476 28.8301 135.672 28.911 135.817 29.0552C135.962 29.1995 136.045 29.3953 136.046 29.5999V49.6825C136.046 49.888 135.964 50.0852 135.819 50.2305C135.674 50.3758 135.476 50.4575 135.271 50.4575H132.064C131.858 50.4575 131.661 50.3758 131.516 50.2305C131.371 50.0852 131.289 49.888 131.289 49.6825V29.5744C131.297 29.3743 131.382 29.1849 131.527 29.0461C131.671 28.9074 131.864 28.8299 132.064 28.8301Z" fill="#052C18"/>
<path d="M149.151 28.3667C151.204 28.3674 153.195 29.0689 154.795 30.355C154.907 30.4499 155.044 30.5108 155.19 30.5306C155.336 30.5504 155.485 30.5282 155.618 30.4667C155.752 30.4052 155.865 30.3069 155.945 30.1833C156.025 30.0597 156.068 29.9159 156.069 29.7687V18.7613C156.069 18.5557 156.151 18.3586 156.296 18.2133C156.442 18.068 156.639 17.9863 156.844 17.9863H160.051C160.257 17.9863 160.454 18.068 160.599 18.2133C160.744 18.3586 160.826 18.5557 160.826 18.7613V49.6525C160.826 49.858 160.744 50.0551 160.599 50.2004C160.454 50.3458 160.257 50.4274 160.051 50.4274H156.844C156.639 50.4274 156.442 50.3458 156.296 50.2004C156.151 50.0551 156.069 49.858 156.069 49.6525V49.4689C156.069 49.3213 156.027 49.1768 155.947 49.0525C155.868 48.9281 155.754 48.829 155.621 48.7669C155.487 48.7048 155.338 48.6822 155.192 48.7018C155.045 48.7214 154.908 48.7823 154.795 48.8775C153.195 50.1621 151.203 50.8602 149.151 50.8557C143.221 50.8557 138.725 45.7981 138.725 39.6137C138.725 33.4294 143.221 28.3667 149.151 28.3667ZM150.012 32.6901C146.163 32.6901 143.568 35.7185 143.568 39.6137C143.568 43.5089 146.163 46.5322 150.012 46.5322C153.862 46.5322 156.457 43.5038 156.457 39.6137C156.457 35.7236 153.862 32.6901 150.018 32.6901H150.012Z" fill="#052C18"/>
<path d="M174.675 50.8591C168.231 50.8591 163.602 46.1023 163.602 39.6172C163.602 33.2136 168.058 28.3701 174.721 28.3701C181.099 28.3701 185.632 33.0759 185.56 40.0046C185.56 40.2106 185.479 40.4083 185.334 40.5544C185.188 40.7006 184.991 40.7834 184.785 40.7847H169.195C169.079 40.7847 168.965 40.8103 168.861 40.8597C168.757 40.9091 168.665 40.981 168.591 41.0703C168.518 41.1595 168.466 41.2639 168.438 41.3758C168.41 41.4878 168.407 41.6046 168.43 41.7177C168.985 44.5473 171.372 46.6682 174.849 46.6682C177.082 46.6682 179.05 45.827 180.105 44.0069C180.172 43.8927 180.268 43.7985 180.384 43.734C180.5 43.6695 180.63 43.637 180.763 43.6398H184.184C184.313 43.6405 184.441 43.6735 184.554 43.7358C184.668 43.798 184.764 43.8876 184.834 43.9963C184.905 44.1051 184.947 44.2297 184.957 44.3588C184.967 44.4879 184.945 44.6175 184.892 44.736C183.332 48.2589 179.662 50.8591 174.675 50.8591ZM169.5 37.4096H179.412C179.534 37.4083 179.654 37.3783 179.763 37.322C179.871 37.2656 179.965 37.1846 180.037 37.0853C180.108 36.9861 180.155 36.8715 180.174 36.7506C180.193 36.6298 180.183 36.5063 180.146 36.3899C179.786 35.2037 179.048 34.1677 178.045 33.4397C177.042 32.7116 175.828 32.3314 174.589 32.3571C171.927 32.3571 169.679 33.7336 168.761 36.395C168.724 36.5115 168.716 36.6349 168.735 36.7555C168.755 36.876 168.803 36.9902 168.875 37.0889C168.947 37.1876 169.041 37.268 169.149 37.3237C169.258 37.3794 169.378 37.4088 169.5 37.4096Z" fill="#052C18"/>
</svg>
