<?xml version="1.0"?>
<svg xmlns="http://www.w3.org/2000/svg" width="53" height="53" viewBox="0 0 53 53" fill="none">
<path d="M4.41699 30.9167C4.41699 22.5886 4.41699 18.4245 7.00421 15.8372C9.59145 13.25 13.7555 13.25 22.0837 13.25H30.917C39.2451 13.25 43.4093 13.25 45.9964 15.8372C48.5837 18.4245 48.5837 22.5886 48.5837 30.9167C48.5837 39.2447 48.5837 43.409 45.9964 45.996C43.4093 48.5833 39.2451 48.5833 30.917 48.5833H22.0837C13.7555 48.5833 9.59145 48.5833 7.00421 45.996C4.41699 43.409 4.41699 39.2447 4.41699 30.9167Z" stroke="white" stroke-width="3.3125"/>
<path d="M35.3337 13.25C35.3337 9.08594 35.3337 7.0039 34.04 5.71031C32.7464 4.41669 30.6644 4.41669 26.5003 4.41669C22.3363 4.41669 20.2542 4.41669 18.9606 5.71031C17.667 7.0039 17.667 9.08594 17.667 13.25" stroke="white" stroke-width="3.3125"/>
<path d="M26.4997 38.2777C28.939 38.2777 30.9163 36.6298 30.9163 34.5973C30.9163 32.5645 28.939 30.9166 26.4997 30.9166C24.0603 30.9166 22.083 29.2688 22.083 27.236C22.083 25.2035 24.0603 23.5556 26.4997 23.5556M26.4997 38.2777C24.0603 38.2777 22.083 36.6298 22.083 34.5973M26.4997 38.2777V39.75M26.4997 23.5556V22.0833M26.4997 23.5556C28.939 23.5556 30.9163 25.2035 30.9163 27.236" stroke="white" stroke-width="3.3125" stroke-linecap="round"/>
</svg>
