<?xml version="1.0"?>
<svg xmlns="http://www.w3.org/2000/svg" width="27" height="27" viewBox="0 0 27 27" fill="none">
<g clip-path="url(#clip0_654_5240)">
<mask id="mask0_654_5240" style="mask-type:luminance" maskUnits="userSpaceOnUse" x="0" y="0" width="27" height="27">
<path d="M27 0H0V27H27V0Z" fill="white"/>
</mask>
<g mask="url(#mask0_654_5240)">
<path d="M0.84375 26.1562C0.84375 26.1562 1.42341 23.101 1.6875 21.9375C1.863 21.1638 2.53125 19.4062 9.28125 18.5625C9.28125 18.5625 10.125 21.0938 13.5 21.0938C16.875 21.0938 17.7188 18.5625 17.7188 18.5625C24.4688 19.4062 25.137 21.1115 25.3125 21.9375C25.5606 23.1052 26.1562 26.1562 26.1562 26.1562M5.90625 16.454L6.75 6.75C7.19803 3.00628 10.2381 0.84375 13.5 0.84375C16.7619 0.84375 19.802 3.03244 20.25 6.75L21.0938 16.4531M6.75 25.3125V26.1562M20.25 25.3125V26.1562M16.0304 5.90625C13.5 7.59375 9.28125 7.59375 9.28125 7.59375C9.28125 11.8125 10.9688 15.1875 13.5 15.1875C16.0312 15.1875 17.7188 11.8125 17.7188 7.59375" stroke="#F7A402" stroke-width="1.6875" stroke-linecap="round" stroke-linejoin="round"/>
</g>
</g>
<defs>
<clipPath id="clip0_654_5240">
<rect width="27" height="27" fill="white"/>
</clipPath>
</defs>
</svg>
